<?xml version="1.0" standalone="no"?>
<!DOCTYPE svg PUBLIC "-//W3C//DTD SVG 20010904//EN"
 "http://www.w3.org/TR/2001/REC-SVG-20010904/DTD/svg10.dtd">
<svg version="1.0" xmlns="http://www.w3.org/2000/svg"
 width="630.000000pt" height="630.000000pt" viewBox="0 0 630.000000 630.000000"
 preserveAspectRatio="xMidYMid meet">
<metadata>
Created by potrace 1.16, written by Peter Selinger 2001-2019
</metadata>
<g transform="translate(0.000000,630.000000) scale(0.100000,-0.100000)"
fill="#000000" stroke="none">
<path d="M2900 5354 c-400 -56 -778 -221 -1095 -477 -95 -77 -308 -293 -386
-392 -71 -90 -179 -245 -179 -258 0 -12 31 -36 46 -37 6 0 21 19 34 43 129
232 319 434 564 598 835 562 1951 453 2675 -260 520 -513 740 -1232 596 -1947
-64 -316 -203 -608 -419 -879 l-29 -36 20 -21 21 -20 83 103 c215 270 382 595
459 898 93 367 86 777 -21 1150 -224 784 -886 1377 -1699 1523 -154 27 -516
34 -670 12z"/>
<path d="M2333 4813 c-14 -16 -46 -62 -72 -103 -58 -92 -189 -232 -284 -303
-151 -113 -445 -270 -637 -340 -109 -40 -274 -79 -440 -103 -91 -13 -159 -15
-330 -11 -207 5 -252 11 -439 54 -51 12 -8 -16 70 -46 194 -74 405 -113 609
-113 258 1 421 33 638 127 275 119 488 261 694 464 173 169 155 168 235 13 71
-136 100 -213 293 -788 95 -280 208 -603 252 -719 44 -115 119 -320 168 -455
121 -338 144 -395 253 -640 53 -118 103 -244 113 -280 23 -86 33 -97 74 -80
77 32 246 364 396 779 25 69 47 127 49 129 7 7 62 -98 152 -290 111 -238 478
-1054 487 -1084 4 -12 16 -30 27 -40 20 -18 21 -18 62 4 23 12 119 93 212 179
101 93 188 164 214 176 85 38 173 8 401 -138 185 -118 293 -170 380 -184 82
-14 170 -14 170 -1 0 6 -10 10 -23 10 -32 0 -146 34 -192 58 -56 28 -130 88
-283 227 -191 174 -282 224 -385 212 -70 -9 -123 -42 -311 -198 -94 -76 -173
-139 -178 -139 -23 0 -75 127 -216 526 -196 551 -312 821 -390 903 -86 90
-120 51 -277 -319 -85 -202 -230 -506 -258 -544 -14 -19 -15 -19 -44 10 -44
44 -141 214 -199 349 -146 340 -373 1064 -535 1709 -101 403 -158 606 -202
722 -98 255 -182 344 -254 267z"/>
<path d="M985 3668 c-74 -220 -107 -631 -71 -893 68 -491 276 -916 616 -1255
410 -411 943 -630 1530 -630 253 0 462 33 692 110 139 46 448 194 448 215 0 8
-9 30 -21 49 l-20 35 -57 -26 c-725 -327 -1512 -254 -2152 201 -134 95 -366
319 -459 444 -223 297 -365 636 -417 998 -30 205 -19 550 23 721 4 18 -1 23
-34 32 -50 14 -73 14 -78 -1z"/>
</g>
</svg>
