<?xml version="1.0" standalone="no"?>
<!DOCTYPE svg PUBLIC "-//W3C//DTD SVG 20010904//EN"
 "http://www.w3.org/TR/2001/REC-SVG-20010904/DTD/svg10.dtd">
<svg version="1.0" xmlns="http://www.w3.org/2000/svg"
 width="3750.000000pt" height="3750.000000pt" viewBox="0 0 3750.000000 3750.000000"
 preserveAspectRatio="xMidYMid meet">
<metadata>
Created by potrace 1.16, written by Peter Selinger 2001-2019
</metadata>
<g transform="translate(0.000000,3750.000000) scale(0.100000,-0.100000)"
fill="#000000" stroke="none">
<path d="M18739 26210 c-296 -13 -494 -34 -829 -90 -91 -15 -258 -48 -300 -60
-19 -5 -66 -17 -105 -26 -289 -67 -724 -212 -990 -331 -44 -20 -100 -45 -125
-56 -365 -162 -838 -441 -1181 -698 -117 -88 -297 -230 -349 -276 -14 -12 -36
-31 -49 -42 -191 -164 -496 -462 -632 -616 -24 -27 -63 -70 -86 -95 -87 -94
-280 -331 -406 -499 -141 -187 -377 -535 -377 -556 0 -11 113 -85 131 -85 4 0
27 33 50 73 274 477 491 768 821 1099 253 255 389 372 672 580 86 63 386 262
476 315 498 297 1072 530 1680 683 69 17 148 35 175 41 28 5 73 14 100 19 115
24 334 59 505 79 408 49 1081 50 1420 1 36 -5 103 -14 150 -20 77 -11 262 -41
365 -60 102 -19 329 -74 472 -115 1773 -502 3240 -1753 4016 -3425 57 -123 74
-161 106 -245 18 -44 36 -89 41 -100 66 -148 201 -579 260 -830 11 -49 25
-108 30 -130 26 -107 57 -291 85 -500 63 -469 65 -1179 5 -1600 -5 -38 -14
-104 -20 -145 -26 -184 -96 -521 -143 -690 -9 -30 -24 -86 -35 -125 -128 -455
-362 -989 -614 -1400 -43 -71 -84 -139 -91 -150 -72 -119 -301 -421 -429 -566
-32 -37 -58 -71 -57 -75 0 -5 21 -27 46 -49 l45 -40 20 25 c11 14 38 45 61 70
111 125 362 450 508 662 406 585 735 1273 929 1938 12 41 28 95 36 120 14 48
75 301 92 385 123 590 157 1218 102 1875 -21 249 -82 614 -151 900 -40 167
-122 458 -138 495 -5 11 -21 56 -36 100 -35 105 -135 362 -175 450 -17 39 -38
86 -47 105 -38 86 -172 354 -221 440 -30 52 -68 120 -85 150 -42 75 -147 237
-259 400 -327 473 -828 1002 -1283 1354 -491 380 -989 666 -1555 894 -301 122
-708 247 -982 303 -29 6 -71 15 -93 20 -57 13 -198 38 -280 49 -38 5 -99 14
-135 20 -134 20 -383 40 -615 50 -258 11 -261 11 -526 0z"/>
<path d="M16569 24632 c-68 -44 -110 -97 -173 -222 -101 -198 -256 -398 -525
-673 -332 -340 -591 -522 -1301 -912 -102 -56 -502 -255 -513 -255 -3 0 -40
-16 -83 -36 -144 -66 -375 -155 -589 -225 -91 -30 -354 -95 -500 -124 -71 -13
-152 -29 -180 -34 -27 -6 -126 -22 -220 -36 -93 -14 -192 -30 -218 -35 -27 -6
-67 -10 -90 -10 -23 0 -60 -5 -82 -10 -22 -5 -154 -14 -292 -20 -328 -15 -757
2 -1088 41 -214 26 -561 97 -669 139 -33 12 -64 13 -50 2 5 -5 34 -19 64 -31
30 -13 73 -31 95 -41 69 -29 295 -114 345 -128 19 -6 80 -24 135 -40 235 -71
620 -153 935 -199 162 -24 658 -23 900 0 525 52 816 117 1211 270 546 213
1244 603 1709 956 123 93 201 161 322 280 59 57 111 107 115 110 4 4 64 65
133 136 298 312 394 405 414 405 39 -1 69 -35 168 -195 53 -85 157 -285 214
-412 175 -390 238 -566 709 -1978 151 -451 311 -926 355 -1055 45 -129 94
-273 110 -320 133 -392 174 -504 446 -1205 68 -176 132 -345 143 -375 11 -30
33 -93 51 -140 17 -47 40 -112 51 -145 20 -59 57 -165 104 -295 13 -36 60
-168 105 -295 112 -317 160 -444 337 -895 28 -71 131 -314 169 -398 13 -29 24
-54 24 -57 0 -4 13 -32 139 -303 39 -85 71 -155 71 -157 0 -2 15 -36 34 -77
19 -40 46 -102 61 -138 15 -36 33 -78 40 -95 67 -148 100 -252 136 -434 11
-55 39 -111 61 -125 12 -7 33 -5 75 8 115 36 218 171 430 561 197 361 285 551
498 1080 143 351 164 406 180 450 29 83 104 295 150 420 26 72 52 145 58 163
5 17 14 32 19 32 9 0 68 -79 68 -91 0 -4 23 -47 51 -96 63 -107 269 -520 269
-538 0 -2 26 -59 59 -126 32 -68 127 -275 211 -459 84 -184 166 -364 183 -400
16 -36 71 -157 122 -270 51 -113 129 -284 173 -380 105 -233 106 -235 207
-460 144 -320 211 -470 250 -560 42 -96 153 -342 197 -440 17 -36 46 -105 65
-155 61 -158 76 -186 113 -211 64 -44 114 -27 265 91 159 124 291 243 640 575
324 309 395 363 551 421 70 26 220 28 312 5 250 -66 393 -141 927 -491 116
-76 224 -146 240 -155 17 -10 71 -41 120 -70 227 -133 459 -228 622 -255 183
-30 483 -45 513 -25 11 7 8 10 -16 10 -65 0 -358 72 -479 117 -195 72 -450
250 -720 502 -33 31 -130 121 -215 201 -312 292 -435 393 -595 492 -188 116
-318 160 -475 160 -195 1 -349 -74 -651 -316 -101 -82 -503 -414 -533 -441 -6
-6 -47 -39 -91 -75 -44 -35 -97 -79 -119 -98 -21 -19 -59 -43 -83 -54 -40 -18
-46 -18 -67 -4 -42 27 -163 290 -282 611 -20 55 -40 109 -45 120 -4 11 -33 92
-64 180 -31 88 -67 189 -80 225 -13 36 -51 144 -85 240 -34 96 -89 252 -122
345 -33 94 -64 181 -68 195 -5 14 -25 70 -45 125 -20 55 -51 143 -69 195 -32
91 -59 162 -76 205 -5 11 -25 65 -45 120 -20 55 -43 114 -49 130 -7 17 -23 57
-35 90 -13 33 -29 76 -36 95 -8 19 -34 87 -58 150 -25 63 -58 144 -75 180 -17
36 -45 99 -62 140 -18 41 -44 100 -57 130 -14 30 -32 73 -41 95 -35 90 -195
396 -253 485 -35 52 -95 128 -135 168 -79 79 -95 85 -190 61 -121 -31 -255
-278 -569 -1049 -38 -92 -85 -203 -145 -335 -10 -22 -59 -134 -110 -250 -110
-251 -276 -590 -395 -810 -109 -202 -131 -235 -153 -235 -30 0 -115 73 -175
150 -117 151 -348 564 -473 846 -36 82 -74 167 -84 189 -10 22 -40 99 -68 170
-27 72 -79 207 -115 300 -65 170 -232 663 -387 1145 -45 140 -90 280 -100 310
-10 30 -46 143 -80 250 -34 107 -77 242 -96 300 -18 58 -49 159 -70 225 -20
66 -52 172 -71 235 -44 144 -146 494 -174 597 -30 111 -34 125 -69 253 -84
299 -120 434 -145 540 -15 63 -30 126 -35 140 -5 14 -15 54 -24 90 -50 216
-301 1225 -317 1275 -5 17 -25 89 -45 160 -19 72 -39 144 -45 160 -8 25 -51
177 -79 280 -5 17 -16 57 -25 90 -10 33 -21 74 -25 90 -30 114 -161 479 -226
632 -128 302 -229 468 -358 591 -75 71 -77 72 -129 72 -41 0 -63 -6 -98 -28z"/>
<path d="M12576 21258 c-4 -13 -70 -255 -86 -318 -14 -53 -51 -219 -60 -270
-4 -25 -17 -94 -28 -155 -21 -115 -52 -347 -74 -550 -19 -185 -18 -951 3
-1085 4 -30 13 -100 19 -155 71 -658 257 -1339 526 -1925 59 -128 205 -415
249 -490 18 -30 57 -95 86 -145 251 -426 580 -846 954 -1219 395 -394 820
-721 1300 -999 130 -75 431 -230 560 -288 122 -55 368 -153 485 -194 58 -20
114 -40 125 -45 11 -4 29 -11 40 -13 11 -3 74 -22 140 -42 114 -35 343 -96
430 -114 100 -22 317 -63 380 -72 39 -6 97 -15 130 -19 108 -17 337 -39 525
-51 296 -19 869 1 1150 41 41 6 109 16 150 21 41 6 111 17 155 25 44 8 107 19
140 25 33 6 74 15 90 19 17 4 66 16 110 25 44 10 121 29 170 42 50 13 115 31
145 39 184 50 480 155 720 257 269 114 860 422 860 449 0 4 -19 38 -43 75 -24
37 -51 85 -61 106 -9 20 -21 37 -25 37 -4 0 -55 -22 -112 -49 -342 -160 -599
-258 -989 -374 -77 -24 -261 -69 -445 -110 -147 -33 -462 -80 -740 -109 -162
-17 -896 -17 -1065 0 -123 12 -164 17 -385 48 -495 67 -1147 256 -1615 467
-127 57 -375 179 -450 222 -47 26 -109 61 -139 77 -210 115 -653 421 -846 584
-304 257 -564 508 -766 739 -118 134 -154 179 -304 380 -57 77 -108 145 -113
150 -27 33 -162 242 -239 370 -156 258 -293 527 -401 785 -127 302 -266 723
-323 975 -32 146 -42 193 -63 305 -57 300 -87 577 -106 965 -7 161 -6 272 5
475 19 355 49 612 105 900 11 58 20 112 20 121 0 12 -18 19 -77 29 -43 7 -103
21 -134 31 -65 22 -78 23 -83 7z"/>
</g>
</svg>
